<svg xmlns="http://www.w3.org/2000/svg" viewBox="0 0 64 64" role="img" aria-label="NCYU">
  <rect width="64" height="64" rx="12" fill="#0077b6"/>
  <path d="M12 14h40a4 4 0 0 1 4 4v28a4 4 0 0 1-4 4H12a4 4 0 0 1-4-4V18a4 4 0 0 1 4-4Z" fill="#fff" opacity=".12"/>
  <path d="M17 42V22h4.8l7.5 11.8V22h5.2v20h-4.8l-7.5-11.8V42H17Zm20.7-4.1c-1.9-2-2.8-4.5-2.8-7.8 0-3.1 1-5.6 2.9-7.4 1.9-1.9 4.4-2.8 7.4-2.8 2.4 0 4.4.5 6.1 1.5v4.9c-1.7-.9-3.5-1.4-5.3-1.4-1.7 0-3 .4-3.9 1.3-.9.9-1.3 2.2-1.3 4s.4 3.2 1.3 4.1c.9.9 2.2 1.4 3.9 1.4 1.9 0 3.7-.5 5.4-1.4v4.9c-1.7 1-3.8 1.5-6.3 1.5-3 0-5.4-.9-7.4-2.8Z" fill="#fff"/>
  <path d="M14 50h36" stroke="#48cae4" stroke-width="4" stroke-linecap="round"/>
</svg>
